<?xml version="1.0" encoding="iso-8859-1"?>
<!-- Generator: Adobe Illustrator 19.0.0, SVG Export Plug-In . SVG Version: 6.00 Build 0)  -->
<svg version="1.1" id="Capa_1" xmlns="http://www.w3.org/2000/svg" xmlns:xlink="http://www.w3.org/1999/xlink" x="0px" y="0px"
	 viewBox="0 0 512 512" style="enable-background:new 0 0 512 512;" xml:space="preserve">
<path style="fill:#FFD54F;" d="M416,53.333H96c-53.019,0-96,42.981-96,96V192c0,5.891,4.776,10.667,10.667,10.667h490.667
	c5.891,0,10.667-4.776,10.667-10.667v-42.667C512,96.314,469.019,53.333,416,53.333z"/>
<path style="fill:#E53935;" d="M469.333,170.667v10.667H42.667v-10.667c-0.014-11.292,2.01-22.493,5.973-33.067
	c2.503-7.178,5.947-13.993,10.24-20.267c17.806-26.649,47.736-42.655,79.787-42.667h234.667
	c32.05,0.012,61.981,16.017,79.787,42.667c4.293,6.274,7.737,13.089,10.24,20.267C467.324,148.173,469.347,159.375,469.333,170.667z
	"/>
<path style="fill:#C62828;" d="M463.36,137.6c-1.473,0.679-3.072,1.042-4.693,1.067H53.333c-1.622-0.024-3.22-0.388-4.693-1.067
	c2.503-7.178,5.947-13.993,10.24-20.267h394.24C457.413,123.607,460.857,130.422,463.36,137.6z"/>
<path style="fill:#FFD54F;" d="M10.667,181.333h490.667c5.891,0,10.667,4.776,10.667,10.667v256c0,5.891-4.776,10.667-10.667,10.667
	H10.667C4.776,458.667,0,453.891,0,448V192C0,186.109,4.776,181.333,10.667,181.333z"/>
<path style="fill:#E53935;" d="M53.333,224h405.333c5.891,0,10.667,4.776,10.667,10.667v170.667c0,5.891-4.776,10.667-10.667,10.667
	H53.333c-5.891,0-10.667-4.776-10.667-10.667V234.667C42.667,228.776,47.442,224,53.333,224z"/>
<rect x="42.667" y="309.333" style="fill:#C62828;" width="426.667" height="21.333"/>
<path style="fill:#FFA000;" d="M309.333,181.333H202.667c-5.891,0-10.667,4.776-10.667,10.667v53.333c0,35.346,28.654,64,64,64
	s64-28.654,64-64V192C320,186.109,315.224,181.333,309.333,181.333z"/>
<path style="fill:#546E7A;" d="M277.333,234.667c0-11.782-9.551-21.333-21.333-21.333c-11.782,0-21.333,9.551-21.333,21.333
	c0.095,7.484,4.156,14.355,10.667,18.048V256c0,5.891,4.776,10.667,10.667,10.667c5.891,0,10.667-4.776,10.667-10.667v-3.285
	C273.177,249.022,277.238,242.151,277.333,234.667z"/>
<path d="M501.333,458.667H10.667C4.776,458.667,0,453.891,0,448V192c0-5.891,4.776-10.667,10.667-10.667h490.667
	c5.891,0,10.667,4.776,10.667,10.667v256C512,453.891,507.224,458.667,501.333,458.667z M21.333,437.333h469.333V202.667H21.333
	V437.333z"/>
<path d="M458.667,416H53.333c-5.891,0-10.667-4.776-10.667-10.667V234.667c0-5.891,4.776-10.667,10.667-10.667h149.333
	c5.891,0,10.667,4.776,10.667,10.667s-4.776,10.667-10.667,10.667H64v149.333h384V245.333H309.333
	c-5.891,0-10.667-4.776-10.667-10.667S303.442,224,309.333,224h149.333c5.891,0,10.667,4.776,10.667,10.667v170.667
	C469.333,411.224,464.558,416,458.667,416z"/>
<path d="M256,309.333c-35.346,0-64-28.654-64-64V192c0-5.891,4.776-10.667,10.667-10.667h106.667
	c5.891,0,10.667,4.776,10.667,10.667v53.333C320,280.68,291.346,309.333,256,309.333z M213.333,202.667v42.667
	C213.333,268.897,232.436,288,256,288s42.667-19.103,42.667-42.667v-42.667H213.333z"/>
<path d="M501.333,202.667c-5.891,0-10.667-4.776-10.667-10.667v-42.667c0-41.237-33.429-74.667-74.667-74.667H96
	c-41.237,0-74.667,33.429-74.667,74.667V192c0,5.891-4.776,10.667-10.667,10.667S0,197.891,0,192v-42.667c0-53.019,42.981-96,96-96
	h320c53.019,0,96,42.981,96,96V192C512,197.891,507.224,202.667,501.333,202.667z"/>
<path d="M53.333,202.667c-5.891,0-10.667-4.776-10.667-10.667v-21.333C42.749,105.899,95.233,53.416,160,53.333
	c5.891,0,10.667,4.776,10.667,10.667S165.891,74.667,160,74.667c-53.019,0-96,42.981-96,96V192
	C64,197.891,59.224,202.667,53.333,202.667z"/>
<path d="M458.667,202.667c-5.891,0-10.667-4.776-10.667-10.667v-21.333c0-53.019-42.981-96-96-96
	c-5.891,0-10.667-4.776-10.667-10.667S346.109,53.333,352,53.333c64.767,0.082,117.251,52.566,117.333,117.333V192
	C469.333,197.891,464.558,202.667,458.667,202.667z"/>
<path d="M458.667,330.667H53.333c-5.891,0-10.667-4.776-10.667-10.667c0-5.891,4.776-10.667,10.667-10.667h405.333
	c5.891,0,10.667,4.776,10.667,10.667C469.333,325.891,464.558,330.667,458.667,330.667z"/>
<path d="M437.333,138.667H74.667C68.776,138.667,64,133.891,64,128c0-5.891,4.776-10.667,10.667-10.667h362.667
	c5.891,0,10.667,4.776,10.667,10.667C448,133.891,443.224,138.667,437.333,138.667z"/>
<path d="M256,256c-11.782,0-21.333-9.551-21.333-21.333s9.551-21.333,21.333-21.333c11.782,0,21.333,9.551,21.333,21.333
	S267.782,256,256,256z"/>
<path d="M256,266.667c-5.891,0-10.667-4.776-10.667-10.667v-21.333c0-5.891,4.776-10.667,10.667-10.667
	c5.891,0,10.667,4.776,10.667,10.667V256C266.667,261.891,261.891,266.667,256,266.667z"/>
<g>
</g>
<g>
</g>
<g>
</g>
<g>
</g>
<g>
</g>
<g>
</g>
<g>
</g>
<g>
</g>
<g>
</g>
<g>
</g>
<g>
</g>
<g>
</g>
<g>
</g>
<g>
</g>
<g>
</g>
</svg>
